<?xml version="1.0" encoding="UTF-8"?>
<svg xmlns="http://www.w3.org/2000/svg" xmlns:xlink="http://www.w3.org/1999/xlink" viewBox="0 0 96 96" width="96px" height="96px">
<g id="surface103960958">
<path style=" stroke:none;fill-rule:nonzero;fill:rgb(7.058824%,43.529412%,60.784316%);fill-opacity:1;" d="M 18 9 L 18 87 L 78 87 L 78 28.78125 L 77.15625 27.84375 L 59.15625 9.84375 L 58.21875 9 Z M 24 15 L 54 15 L 54 33 L 72 33 L 72 81 L 24 81 Z M 60 19.3125 L 67.6875 27 L 60 27 Z M 33 39 L 33 45 L 63 45 L 63 39 Z M 33 51 L 33 57 L 63 57 L 63 51 Z M 33 63 L 33 69 L 63 69 L 63 63 Z M 33 63 "/>
</g>
</svg>
